<?xml version="1.0" standalone="no"?>
<!DOCTYPE svg PUBLIC "-//W3C//DTD SVG 20010904//EN"
 "http://www.w3.org/TR/2001/REC-SVG-20010904/DTD/svg10.dtd">
<svg version="1.0" xmlns="http://www.w3.org/2000/svg"
 width="100.000000pt" height="100.000000pt" viewBox="0 0 100.000000 100.000000"
 preserveAspectRatio="xMidYMid meet">
<metadata>
Created by potrace 1.14, written by Peter Selinger 2001-2017
</metadata>
<g transform="translate(0.000000,100.000000) scale(0.100000,-0.100000)"
fill="#000000" stroke="none">
<path d="M210 980 c0 -11 6 -19 13 -17 19 3 27 21 14 29 -20 13 -27 9 -27 -12z"/>
<path d="M423 931 c-1 -11 4 -18 13 -17 8 1 14 5 14 9 0 4 0 12 0 17 0 19 -26
10 -27 -9z"/>
<path d="M506 864 c-10 -25 -7 -33 15 -44 17 -9 23 -8 34 7 8 11 10 22 4 29
-5 6 -7 13 -4 15 2 3 -7 6 -19 7 -14 1 -27 -5 -30 -14z"/>
<path d="M376 862 c-8 -13 18 -45 28 -35 10 10 7 35 -3 29 -5 -4 -11 -1 -13 6
-3 9 -6 9 -12 0z"/>
<path d="M157 843 c-12 -12 -7 -40 7 -40 8 0 12 6 8 15 -4 11 -2 13 9 7 12 -8
12 -6 0 8 -15 19 -15 19 -24 10z"/>
<path d="M550 780 c-8 -5 -18 -6 -22 -4 -4 3 -8 -2 -8 -10 0 -9 -4 -16 -9 -16
-6 0 -8 -15 -7 -34 3 -27 -2 -40 -23 -58 -35 -30 -53 -32 -79 -8 -12 12 -22
18 -22 15 0 -3 -9 4 -20 15 -22 22 -55 26 -65 9 -4 -6 -13 -8 -21 -5 -8 3 -14
-1 -14 -8 0 -8 -6 -16 -14 -19 -19 -7 -14 -73 8 -98 29 -35 31 -80 4 -110 -14
-16 -31 -25 -43 -23 -29 4 -66 -34 -61 -63 4 -22 29 -54 41 -53 21 1 27 -1 22
-7 -4 -3 -2 -12 4 -20 6 -7 9 -13 6 -13 -3 0 6 -25 20 -56 25 -56 90 -134 111
-134 7 0 12 -7 12 -16 0 -10 6 -14 14 -11 8 3 20 -1 26 -8 7 -8 16 -13 20 -10
5 3 11 1 15 -5 3 -5 15 -10 26 -10 10 0 19 -6 19 -12 0 -9 4 -8 10 2 5 8 10
10 10 5 0 -6 28 -11 65 -12 45 0 63 3 58 11 -4 6 2 4 12 -4 11 -9 16 -10 11
-2 -5 8 1 12 18 12 14 0 26 5 26 11 0 5 4 8 9 5 13 -8 92 47 133 93 20 22 34
41 32 41 -3 0 2 12 10 28 19 35 28 61 33 92 2 13 10 31 16 39 7 8 7 12 2 9 -7
-4 -11 11 -11 40 -1 26 -4 61 -8 77 -4 17 -8 36 -8 43 -1 6 -4 12 -7 12 -3 0
-12 15 -20 33 -14 31 -91 117 -106 117 -4 0 -18 9 -32 20 -14 11 -29 17 -33
15 -5 -3 -11 -1 -15 5 -4 6 -11 8 -16 5 -5 -4 -9 -1 -9 4 0 6 -3 10 -7 9 -18
-5 -52 15 -58 33 -4 10 -12 19 -20 19 -7 0 -15 4 -17 10 -2 6 -9 6 -18 0z
m110 -218 c14 -5 39 -23 56 -39 32 -29 81 -103 69 -103 -4 0 -2 -7 5 -15 9
-11 9 -15 1 -15 -7 0 -9 -5 -4 -12 11 -18 11 -68 0 -68 -5 0 -7 -7 -3 -15 3
-8 1 -15 -5 -15 -6 0 -8 -4 -5 -9 3 -5 -1 -14 -9 -21 -8 -7 -13 -15 -12 -19 2
-3 -7 -16 -20 -28 -13 -12 -23 -20 -23 -16 0 3 -8 -3 -17 -13 -17 -18 -35 -26
-60 -27 -7 0 -13 -3 -13 -6 0 -8 -87 -7 -95 1 -4 4 -13 4 -21 1 -8 -3 -14 0
-14 6 0 6 -6 11 -13 11 -33 0 -110 95 -112 139 -1 15 -4 31 -7 36 -3 6 -4 24
-3 40 2 17 3 38 4 48 1 11 5 15 13 11 8 -5 9 -2 5 9 -3 10 -2 17 4 17 6 0 7 5
4 10 -3 6 -1 10 4 10 6 0 10 4 9 9 -2 5 0 8 4 7 4 0 15 9 23 22 9 12 23 22 31
22 8 0 14 5 14 10 0 6 12 10 26 10 14 0 22 4 19 10 -8 13 111 6 145 -8z"/>
<path d="M588 484 c-2 -2 -18 -4 -36 -6 -18 -1 -32 -5 -32 -9 0 -3 -12 -11
-26 -17 -14 -7 -23 -16 -20 -21 4 -5 1 -11 -4 -13 -6 -2 -13 -16 -16 -32 -3
-16 -7 -33 -10 -37 -2 -4 0 -10 6 -14 5 -3 10 -13 10 -22 0 -8 9 -26 20 -40
11 -14 20 -22 20 -18 0 4 6 2 14 -4 21 -17 72 -22 104 -10 31 12 74 57 66 70
-3 5 0 9 5 9 20 0 4 87 -21 115 -21 25 -73 57 -80 49z"/>
<path d="M202 745 c-16 -19 -16 -23 2 -40 19 -19 21 -19 46 7 l20 22 -22 13
c-29 15 -30 15 -46 -2z"/>
<path d="M425 749 c3 -3 -4 -9 -15 -12 -26 -7 -26 -37 1 -66 18 -19 23 -20 37
-9 41 32 42 35 28 62 -7 14 -16 23 -19 19 -4 -3 -7 -2 -7 4 0 5 -7 10 -15 10
-8 0 -12 -4 -10 -8z"/>
<path d="M105 721 c3 -6 1 -11 -4 -11 -15 0 -14 -17 2 -23 6 -2 17 1 23 8 9 9
7 15 -8 24 -12 7 -17 8 -13 2z"/>
<path d="M83 589 c-26 -10 -30 -41 -8 -59 10 -8 15 -9 15 -2 0 6 6 9 14 6 8
-3 16 3 19 15 3 12 1 21 -3 21 -5 0 -10 6 -12 14 -2 10 -9 11 -25 5z"/>
<path d="M170 535 c-5 -6 -7 -20 -5 -30 2 -11 4 -25 4 -31 2 -18 65 -12 86 9
11 11 14 17 7 13 -9 -6 -11 -1 -8 18 3 15 1 24 -5 21 -5 -4 -9 -2 -9 3 0 12
-59 10 -70 -3z"/>
</g>
</svg>
